<?xml version="1.0" encoding="UTF-8" standalone="no"?>
<!DOCTYPE svg PUBLIC "-//W3C//DTD SVG 1.1//EN" "http://www.w3.org/Graphics/SVG/1.1/DTD/svg11.dtd">
<svg version="1.1" xmlns="http://www.w3.org/2000/svg" xmlns:xlink="http://www.w3.org/1999/xlink" preserveAspectRatio="xMidYMid meet" viewBox="94.73813335163294 66.10743801652893 452.7603305785123 456.89256198347107" width="448" height="452"><defs><path d="M544.5 293.55C544.5 418.53 443.96 520 320.12 520C196.28 520 95.74 418.53 95.74 293.55C95.74 168.57 196.28 67.11 320.12 67.11C443.96 67.11 544.5 168.57 544.5 293.55Z" id="ayupBC9Mh"></path><path d="M306.14 443.56L333.47 443.56L333.47 520L306.14 520L306.14 443.56Z" id="beUxDIpdx"></path><path d="M300.21 400.05L339.81 400.05L339.81 467.38L300.21 467.38L300.21 400.05Z" id="awVuYnLgY"></path><path d="M297.23 271.29L342.77 271.29L342.77 282.18L297.23 282.18L297.23 271.29Z" id="c6mBq9lOy"></path><path d="M304.03 176.93L336.37 176.93L336.37 276.73L304.03 276.73L304.03 176.93Z" id="b1uuiIpgt0"></path><path d="M326.2 229.71L332.37 136.17L320.03 136.17L307.7 136.17L313.87 229.71L320.03 323.26L326.2 229.71Z" id="b2fmjH9Ywe"></path><path d="M314.05 125.65L307.97 136.17L314.05 146.69L326.19 146.69L332.26 136.17L326.19 125.65L314.05 125.65Z" id="a16sDknBYG"></path><path d="M287.5 277.25L352.5 277.25L352.5 430.71L287.5 430.71L287.5 277.25Z" id="aGndepKc5"></path></defs><g><g><use xlink:href="#ayupBC9Mh" opacity="1" fill="#000000" fill-opacity="1"></use></g><g><use xlink:href="#beUxDIpdx" opacity="1" fill="#1db954" fill-opacity="1"></use></g><g><use xlink:href="#awVuYnLgY" opacity="1" fill="#1db954" fill-opacity="1"></use></g><g><use xlink:href="#c6mBq9lOy" opacity="1" fill="#1db954" fill-opacity="1"></use></g><g><use xlink:href="#b1uuiIpgt0" opacity="1" fill="#1db954" fill-opacity="1"></use></g><g><use xlink:href="#b2fmjH9Ywe" opacity="1" fill="#1db954" fill-opacity="1"></use></g><g><use xlink:href="#a16sDknBYG" opacity="1" fill="#1db954" fill-opacity="1"></use></g><g><use xlink:href="#aGndepKc5" opacity="1" fill="#1db954" fill-opacity="1"></use></g></g></svg>