<?xml version="1.0" encoding="UTF-8" standalone="no"?>
<!DOCTYPE svg PUBLIC "-//W3C//DTD SVG 1.1//EN" "http://www.w3.org/Graphics/SVG/1.1/DTD/svg11.dtd">
<svg version="1.1" xmlns="http://www.w3.org/2000/svg" xmlns:xlink="http://www.w3.org/1999/xlink" preserveAspectRatio="xMidYMid meet" viewBox="286.5 124.64746526591605 69 398.352534734084" width="65" height="395"><defs><path d="M306.14 443.56L333.47 443.56L333.47 520L306.14 520L306.14 443.56Z" id="b21CDGEM3c"></path><path d="M300.21 400.05L339.81 400.05L339.81 467.38L300.21 467.38L300.21 400.05Z" id="bwqgCTPiB"></path><path d="M297.23 271.29L342.77 271.29L342.77 282.18L297.23 282.18L297.23 271.29Z" id="dWNaYOBvX"></path><path d="M304.03 176.93L336.37 176.93L336.37 276.73L304.03 276.73L304.03 176.93Z" id="e2sOH5VgYW"></path><path d="M326.2 229.71L332.37 136.17L320.03 136.17L307.7 136.17L313.87 229.71L320.03 323.26L326.2 229.71Z" id="a134HSPdS"></path><path d="M314.05 125.65L307.97 136.17L314.05 146.69L326.19 146.69L332.26 136.17L326.19 125.65L314.05 125.65Z" id="boyplXD85"></path><path d="M287.5 277.25L352.5 277.25L352.5 430.71L287.5 430.71L287.5 277.25Z" id="bZy4IkyL7"></path></defs><g><g><use xlink:href="#b21CDGEM3c" opacity="1" fill="#000000" fill-opacity="1"></use></g><g><use xlink:href="#bwqgCTPiB" opacity="1" fill="#000000" fill-opacity="1"></use></g><g><use xlink:href="#dWNaYOBvX" opacity="1" fill="#5a5a5a" fill-opacity="1"></use></g><g><use xlink:href="#e2sOH5VgYW" opacity="1" fill="#5a5a5a" fill-opacity="1"></use></g><g><use xlink:href="#a134HSPdS" opacity="1" fill="#5a5a5a" fill-opacity="1"></use></g><g><use xlink:href="#boyplXD85" opacity="1" fill="#5a5a5a" fill-opacity="1"></use></g><g><use xlink:href="#bZy4IkyL7" opacity="1" fill="#1e1e1e" fill-opacity="1"></use></g></g></svg>