<?xml version="1.0" encoding="UTF-8" standalone="no"?>
<!DOCTYPE svg PUBLIC "-//W3C//DTD SVG 1.1//EN" "http://www.w3.org/Graphics/SVG/1.1/DTD/svg11.dtd">
<svg version="1.1" xmlns="http://www.w3.org/2000/svg" xmlns:xlink="http://www.w3.org/1999/xlink" preserveAspectRatio="xMidYMid meet" viewBox="286.5 124.64746526591605 69 398.352534734084" width="65" height="395"><defs><path d="M306.14 443.56L333.47 443.56L333.47 520L306.14 520L306.14 443.56Z" id="aVjTmCTGv"></path><path d="M300.21 400.05L339.81 400.05L339.81 467.38L300.21 467.38L300.21 400.05Z" id="a1SLk21yFK"></path><path d="M297.23 271.29L342.77 271.29L342.77 282.18L297.23 282.18L297.23 271.29Z" id="h1HlXKmHw"></path><path d="M304.03 176.93L336.37 176.93L336.37 276.73L304.03 276.73L304.03 176.93Z" id="a2XCR9WuAT"></path><path d="M326.2 229.71L332.37 136.17L320.03 136.17L307.7 136.17L313.87 229.71L320.03 323.26L326.2 229.71Z" id="a1VxvID6R"></path><path d="M314.05 125.65L307.97 136.17L314.05 146.69L326.19 146.69L332.26 136.17L326.19 125.65L314.05 125.65Z" id="aB6K8YX5T"></path><path d="M287.5 277.25L352.5 277.25L352.5 430.71L287.5 430.71L287.5 277.25Z" id="aHkVUU3Gr"></path></defs><g><g><use xlink:href="#aVjTmCTGv" opacity="1" fill="#ffffff" fill-opacity="1"></use></g><g><use xlink:href="#a1SLk21yFK" opacity="1" fill="#ffffff" fill-opacity="1"></use></g><g><use xlink:href="#h1HlXKmHw" opacity="1" fill="#ffffff" fill-opacity="1"></use></g><g><use xlink:href="#a2XCR9WuAT" opacity="1" fill="#ffffff" fill-opacity="1"></use></g><g><use xlink:href="#a1VxvID6R" opacity="1" fill="#ffffff" fill-opacity="1"></use></g><g><use xlink:href="#aB6K8YX5T" opacity="1" fill="#ffffff" fill-opacity="1"></use></g><g><use xlink:href="#aHkVUU3Gr" opacity="1" fill="#ffffff" fill-opacity="1"></use></g></g></svg>